<svg fill="white" xmlns="http://www.w3.org/2000/svg" viewBox="0 0 50 50" width="50px" height="50px"><path d="M 31.970703 0 A 1.0001 1.0001 0 0 0 31.375 0.22070312 C 31.375 0.22070312 17.059378 11.708539 12.806641 14.927734 C 10.159814 16.931054 8.7062144 18.383432 7.890625 19.792969 C 7.0750356 21.202506 7.0019531 22.519818 7.0019531 23.820312 L 7 43 C 7 45.749516 9.2504839 48 12 48 L 42 48 A 1.0001 1.0001 0 0 0 43 47 L 43 20 A 1.0001 1.0001 0 0 0 42 19 L 37 19 L 33 19 L 33 1 A 1.0001 1.0001 0 0 0 31.970703 0 z M 31 3.0664062 L 31 20 L 31 30.464844 L 13.445312 42.167969 A 1.0001 1.0001 0 0 0 14.291016 43.957031 L 37.291016 36.957031 A 1.0001 1.0001 0 0 0 38 36 L 38 21 L 41 21 L 41 46 L 12 46 C 10.331516 46 9 44.668484 9 43 L 9.0019531 23.820312 C 9.0019531 22.574807 9.0319331 21.813135 9.6210938 20.794922 C 10.210257 19.776709 11.461498 18.453164 14.013672 16.521484 C 17.988674 13.512526 28.895854 4.75423 31 3.0664062 z M 25.166016 17.011719 C 24.944532 17.029555 24.724431 17.069583 24.511719 17.126953 C 23.660871 17.356433 22.852376 17.865832 22.191406 18.603516 C 21.530496 19.341133 21.119675 20.190843 21.021484 21.056641 C 20.923294 21.922439 21.18836 22.878761 21.931641 23.462891 C 22.674965 24.047054 23.637278 24.102401 24.488281 23.873047 C 25.339284 23.643693 26.147624 23.134168 26.808594 22.396484 C 27.469596 21.658764 27.880347 20.809313 27.978516 19.943359 C 28.076686 19.077405 27.811828 18.121386 27.068359 17.537109 L 27.066406 17.537109 C 26.694699 17.245385 26.2695 17.085549 25.830078 17.027344 C 25.610367 16.998239 25.3875 16.993883 25.166016 17.011719 z M 25.318359 19.003906 C 25.573979 18.980613 25.741662 19.038463 25.832031 19.109375 C 25.952563 19.204095 26.033768 19.350001 25.992188 19.716797 C 25.950608 20.083593 25.734357 20.59822 25.318359 21.0625 C 24.902329 21.526816 24.387544 21.82801 23.966797 21.941406 C 23.54605 22.054802 23.288644 21.985465 23.167969 21.890625 C 23.04725 21.795755 22.966254 21.649655 23.007812 21.283203 C 23.049373 20.916751 23.265551 20.401882 23.681641 19.9375 C 24.097671 19.473184 24.612301 19.170161 25.033203 19.056641 C 25.138429 19.02826 25.233153 19.011671 25.318359 19.003906 z M 33 21 L 36 21 L 36 35.259766 L 20.201172 40.066406 L 32.554688 31.832031 A 1.0001 1.0001 0 0 0 33 31 L 33 21 z"/></svg>